<svg width="163" height="50" viewBox="0 0 163 50" fill="none" xmlns="http://www.w3.org/2000/svg">
<rect y="8.80408" width="32.1921" height="32.7155" rx="5.91828" fill="#E57130"/>
<path fill-rule="evenodd" clip-rule="evenodd" d="M19.5979 16.8492C20.2604 16.7554 20.8391 17.2749 20.8391 17.9441V26.3962L17.3212 27.1289C16.7987 27.2377 16.4241 27.6983 16.4241 28.232V31.6011L10.6144 32.811C9.91467 32.9568 9.25781 32.4226 9.25781 31.7079V19.9991C9.25781 19.475 9.61921 19.02 10.1298 18.9015L11.6879 18.5397C12.0178 18.4631 12.3331 18.7136 12.3331 19.0522C12.3331 19.5399 12.9637 19.787 13.318 19.452C14.0789 18.7324 15.1665 17.8431 16.1608 17.5393C17.1851 17.2263 18.5944 16.9914 19.5979 16.8492Z" fill="white"/>
<circle cx="20.2837" cy="30.6903" r="2.64992" fill="white"/>
<path d="M46.6491 37V21.0841H50.2965V37H46.6491ZM50.2965 28.1468L49.0365 27.5168C49.0365 25.5052 49.4786 23.8804 50.3628 22.6425C51.2691 21.3825 52.6286 20.7525 54.4413 20.7525C55.2371 20.7525 55.9555 20.8962 56.5965 21.1836C57.2376 21.4709 57.8345 21.9352 58.3871 22.5762L55.9997 25.0299C55.7123 24.7204 55.3918 24.4994 55.0381 24.3668C54.6844 24.2341 54.2755 24.1678 53.8113 24.1678C52.7944 24.1678 51.9544 24.4883 51.2912 25.1294C50.6281 25.7704 50.2965 26.7762 50.2965 28.1468ZM67.0605 37.3316C65.4689 37.3316 64.0321 36.9779 62.75 36.2705C61.49 35.541 60.4842 34.5463 59.7326 33.2863C59.0031 32.0263 58.6384 30.6115 58.6384 29.0421C58.6384 27.4726 59.0031 26.0689 59.7326 24.831C60.4621 23.571 61.4458 22.5762 62.6837 21.8467C63.9437 21.1173 65.3363 20.7525 66.8616 20.7525C68.3426 20.7525 69.6469 21.0952 70.7742 21.7804C71.9237 22.4657 72.819 23.4052 73.46 24.5989C74.1232 25.7926 74.4548 27.152 74.4548 28.6773C74.4548 28.9426 74.4327 29.2189 74.3885 29.5063C74.3664 29.7715 74.3222 30.07 74.2558 30.4015H61.1915V27.4173H72.3658L71.0063 28.611C70.9621 27.6384 70.7742 26.8205 70.4427 26.1573C70.1111 25.4941 69.6358 24.9857 69.0169 24.632C68.42 24.2783 67.6795 24.1015 66.7953 24.1015C65.8668 24.1015 65.06 24.3004 64.3747 24.6983C63.6894 25.0962 63.1589 25.6599 62.7831 26.3894C62.4073 27.0968 62.2194 27.9478 62.2194 28.9426C62.2194 29.9373 62.4184 30.8105 62.8163 31.5621C63.2142 32.3137 63.7779 32.8994 64.5074 33.3194C65.2368 33.7173 66.0768 33.9163 67.0274 33.9163C67.8453 33.9163 68.5969 33.7726 69.2821 33.4852C69.9895 33.1979 70.5863 32.7779 71.0727 32.2252L73.3937 34.5795C72.62 35.4858 71.6806 36.171 70.5753 36.6353C69.47 37.0995 68.2984 37.3316 67.0605 37.3316ZM77.3787 37V13.1262H81.0261V37H77.3787ZM92.4796 37.3316C90.888 37.3316 89.4512 36.9779 88.169 36.2705C86.909 35.541 85.9032 34.5463 85.1516 33.2863C84.4222 32.0263 84.0574 30.6115 84.0574 29.0421C84.0574 27.4726 84.4222 26.0689 85.1516 24.831C85.8811 23.571 86.8648 22.5762 88.1027 21.8467C89.3627 21.1173 90.7554 20.7525 92.2806 20.7525C93.7617 20.7525 95.0659 21.0952 96.1933 21.7804C97.3428 22.4657 98.2381 23.4052 98.8791 24.5989C99.5423 25.7926 99.8739 27.152 99.8739 28.6773C99.8739 28.9426 99.8518 29.2189 99.8075 29.5063C99.7854 29.7715 99.7412 30.07 99.6749 30.4015H86.6106V27.4173H97.7849L96.4254 28.611C96.3812 27.6384 96.1933 26.8205 95.8617 26.1573C95.5301 25.4941 95.0549 24.9857 94.4359 24.632C93.8391 24.2783 93.0985 24.1015 92.2143 24.1015C91.2859 24.1015 90.4791 24.3004 89.7938 24.6983C89.1085 25.0962 88.578 25.6599 88.2022 26.3894C87.8264 27.0968 87.6385 27.9478 87.6385 28.9426C87.6385 29.9373 87.8375 30.8105 88.2354 31.5621C88.6333 32.3137 89.1969 32.8994 89.9264 33.3194C90.6559 33.7173 91.4959 33.9163 92.4464 33.9163C93.2643 33.9163 94.0159 33.7726 94.7012 33.4852C95.4086 33.1979 96.0054 32.7779 96.4917 32.2252L98.8128 34.5795C98.0391 35.4858 97.0996 36.171 95.9944 36.6353C94.8891 37.0995 93.7175 37.3316 92.4796 37.3316ZM110.126 37.3316C108.556 37.3316 107.13 36.9668 105.848 36.2374C104.588 35.5079 103.594 34.5131 102.864 33.2531C102.135 31.9931 101.77 30.5894 101.77 29.0421C101.77 27.4726 102.135 26.0689 102.864 24.831C103.594 23.571 104.588 22.5762 105.848 21.8467C107.13 21.1173 108.556 20.7525 110.126 20.7525C111.364 20.7525 112.513 20.9957 113.574 21.482C114.657 21.9462 115.575 22.6204 116.326 23.5046L113.939 25.9252C113.475 25.3726 112.911 24.9636 112.248 24.6983C111.607 24.411 110.899 24.2673 110.126 24.2673C109.219 24.2673 108.413 24.4773 107.705 24.8973C107.02 25.2952 106.478 25.8478 106.08 26.5552C105.705 27.2626 105.517 28.0915 105.517 29.0421C105.517 29.9705 105.705 30.7994 106.08 31.5289C106.478 32.2363 107.02 32.8 107.705 33.22C108.413 33.6179 109.219 33.8168 110.126 33.8168C110.899 33.8168 111.607 33.6842 112.248 33.4189C112.911 33.1316 113.475 32.7115 113.939 32.1589L116.326 34.5795C115.575 35.4637 114.657 36.1489 113.574 36.6353C112.513 37.0995 111.364 37.3316 110.126 37.3316ZM118.989 37V21.0841H122.636V37H118.989ZM120.813 18.1662C120.194 18.1662 119.674 17.9562 119.254 17.5362C118.856 17.1162 118.657 16.5967 118.657 15.9777C118.657 15.3588 118.856 14.8393 119.254 14.4193C119.674 13.9993 120.194 13.7893 120.813 13.7893C121.454 13.7893 121.973 13.9993 122.371 14.4193C122.769 14.8393 122.968 15.3588 122.968 15.9777C122.968 16.5967 122.769 17.1162 122.371 17.5362C121.973 17.9562 121.454 18.1662 120.813 18.1662ZM129.148 37V14.4525H132.795V37H129.148ZM125.335 24.3999V21.0841H136.608V24.3999H125.335ZM144.398 37.1658L137.601 21.0841H141.613L146.255 32.8884H145.095L150.002 21.0841H154.047L146.653 37.1658H144.398ZM139.657 43.6316L144.597 33.4521L146.653 37.1658L143.702 43.6316H139.657ZM156.939 37.3316C156.232 37.3316 155.646 37.0995 155.182 36.6353C154.74 36.1489 154.519 35.5631 154.519 34.8779C154.519 34.1705 154.74 33.5847 155.182 33.1205C155.646 32.6563 156.232 32.4242 156.939 32.4242C157.647 32.4242 158.221 32.6563 158.663 33.1205C159.128 33.5847 159.36 34.1705 159.36 34.8779C159.36 35.5631 159.128 36.1489 158.663 36.6353C158.221 37.0995 157.647 37.3316 156.939 37.3316Z" fill="#232323"/>
</svg>
